<svg xmlns="http://www.w3.org/2000/svg" width="1000" height="1000" viewBox="0 0 1000 1000"><rect width="1000" height="1000" fill="#111b04"/><g fill="none"><path d="M -257.4955068518933 -50 Q 650 292.2493978654212 850 460 T -657.4955068518933 1050" stroke="#5a7818" stroke-width="14" opacity="0.5818374755829886"/><path d="M 668.3006277451509 -50 Q 650 316.1838167543375 850 460 T 268.3006277451509 1050" stroke="#ffffff" stroke-width="4" opacity="0.6355492492320512"/><path d="M -382.2909192126913 -50 Q 650 359.6877353146878 850 460 T -782.2909192126913 1050" stroke="#ffffff" stroke-width="8" opacity="0.6973476983809133"/><path d="M -493.3356551364854 -50 Q 650 327.59565673122347 850 460 T -893.3356551364855 1050" stroke="#ffffff" stroke-width="1" opacity="0.7199880327587147"/><path d="M -727.1151167871072 -50 Q 650 375.70979605185875 850 460 T -1127.1151167871071 1050" stroke="#edffad" stroke-width="4" opacity="0.7960535423584895"/><path d="M 1323.640380329814 -50 Q 650 185.0783509341787 850 460 T 923.640380329814 1050" stroke="#ffffff" stroke-width="8" opacity="0.5264743828005207"/><path d="M 1262.4536816601162 -50 Q 650 253.40221185979664 850 460 T 862.4536816601162 1050" stroke="#b8f538" stroke-width="4" opacity="0.31821801681161405"/><path d="M -532.884077458194 -50 Q 650 164.62490708092355 850 460 T -932.884077458194 1050" stroke="#ffffff" stroke-width="4" opacity="0.5448039587964868"/><path d="M 1350.3882239895975 -50 Q 650 303.8688667629293 850 460 T 950.3882239895975 1050" stroke="#ffffff" stroke-width="14" opacity="0.412670533604482"/><path d="M 9.265530417500031 -50 Q 650 437.13501052773586 850 460 T -390.73446958249997 1050" stroke="#edffad" stroke-width="4" opacity="0.9436927514081705"/><path d="M 912.4385638387992 -50 Q 650 143.6088525687172 850 460 T 512.4385638387992 1050" stroke="#5a7818" stroke-width="14" opacity="0.8832871891585656"/><path d="M 636.5902593806734 -50 Q 650 358.3886378679377 850 460 T 236.5902593806734 1050" stroke="#b8f538" stroke-width="14" opacity="0.4369594342967139"/><path d="M -564.0259409595761 -50 Q 650 267.980554871541 850 460 T -964.0259409595761 1050" stroke="#ffffff" stroke-width="1" opacity="0.49085614055705606"/><path d="M -720.1475574951851 -50 Q 650 429.867501696933 850 460 T -1120.147557495185 1050" stroke="#edffad" stroke-width="4" opacity="0.5489992330830866"/><path d="M 221.03272197001388 -50 Q 650 126.37771857704311 850 460 T -178.96727802998612 1050" stroke="#edffad" stroke-width="8" opacity="0.7529083342139613"/><path d="M -6.423805748679683 -50 Q 650 423.55306982646965 850 460 T -406.4238057486797 1050" stroke="#5a7818" stroke-width="14" opacity="0.41516609042105274"/><path d="M -802.7653371087526 -50 Q 650 82.82076612128743 850 460 T -1202.7653371087526 1050" stroke="#edffad" stroke-width="14" opacity="0.624904718413684"/><path d="M 1662.017831451737 -50 Q 650 458.85717666965047 850 460 T 1262.017831451737 1050" stroke="#5a7818" stroke-width="14" opacity="0.4343612433175689"/><path d="M 962.2792982651047 -50 Q 650 462.1556482347386 850 460 T 562.2792982651047 1050" stroke="#5a7818" stroke-width="4" opacity="0.5021376130809009"/><path d="M -526.519670181118 -50 Q 650 416.0658713231817 850 460 T -926.519670181118 1050" stroke="#ffffff" stroke-width="8" opacity="0.8589240645174018"/><path d="M 142.72095142677063 -50 Q 650 418.0646892063587 850 460 T -257.2790485732294 1050" stroke="#edffad" stroke-width="14" opacity="0.9310183402779316"/><path d="M 1291.0824929846253 -50 Q 650 185.80724647763896 850 460 T 891.0824929846253 1050" stroke="#b8f538" stroke-width="4" opacity="0.556212031725482"/><path d="M -202.77124265548832 -50 Q 650 198.16732372260003 850 460 T -602.7712426554883 1050" stroke="#5a7818" stroke-width="1" opacity="0.8018775261241736"/><path d="M 1766.1310141228591 -50 Q 650 202.80179312691558 850 460 T 1366.1310141228591 1050" stroke="#ffffff" stroke-width="14" opacity="0.6624422024378656"/><path d="M -540.1752757860918 -50 Q 650 327.0778111715841 850 460 T -940.1752757860918 1050" stroke="#5a7818" stroke-width="8" opacity="0.4970411008260918"/><path d="M 1576.8142130371766 -50 Q 650 317.45692793809326 850 460 T 1176.8142130371766 1050" stroke="#5a7818" stroke-width="8" opacity="0.2655277282935669"/><path d="M -736.4426301563473 -50 Q 650 343.64792070007695 850 460 T -1136.4426301563471 1050" stroke="#5a7818" stroke-width="4" opacity="0.6895785400228089"/><path d="M -93.68199184377454 -50 Q 650 314.5673213512443 850 460 T -493.68199184377454 1050" stroke="#b8f538" stroke-width="4" opacity="0.37967223166577113"/><path d="M 1146.8892469757475 -50 Q 650 409.09796902755187 850 460 T 746.8892469757475 1050" stroke="#5a7818" stroke-width="4" opacity="0.8011113409996944"/><path d="M -616.8463402603701 -50 Q 650 397.09216826036027 850 460 T -1016.8463402603701 1050" stroke="#b8f538" stroke-width="4" opacity="0.6000075009150541"/><path d="M 865.0528644791295 -50 Q 650 185.0574726096624 850 460 T 465.05286447912954 1050" stroke="#5a7818" stroke-width="2" opacity="0.7246445283641221"/><path d="M 853.7552772818451 -50 Q 650 117.8387331196536 850 460 T 453.7552772818451 1050" stroke="#5a7818" stroke-width="4" opacity="0.7224491781255395"/><path d="M -293.9570100325126 -50 Q 650 395.80834808691384 850 460 T -693.9570100325126 1050" stroke="#b8f538" stroke-width="1" opacity="0.48569716453141654"/><path d="M 855.6274159897362 -50 Q 650 425.11032604930256 850 460 T 455.62741598973616 1050" stroke="#ffffff" stroke-width="4" opacity="0.4075194899060193"/><path d="M -573.5178232822266 -50 Q 650 286.5547750402734 850 460 T -973.5178232822266 1050" stroke="#b8f538" stroke-width="4" opacity="0.8147440663378201"/><path d="M 1363.8862233762093 -50 Q 650 151.59866218904975 850 460 T 963.8862233762093 1050" stroke="#5a7818" stroke-width="4" opacity="0.8150584927168675"/><path d="M 833.2305925409635 -50 Q 650 394.44055804267146 850 460 T 433.23059254096347 1050" stroke="#5a7818" stroke-width="14" opacity="0.34078239645727476"/><path d="M -111.75419464950596 -50 Q 650 389.6061505488243 850 460 T -511.75419464950596 1050" stroke="#5a7818" stroke-width="8" opacity="0.4924479964667974"/><path d="M 225.64537885842196 -50 Q 650 243.71076167858823 850 460 T -174.35462114157804 1050" stroke="#ffffff" stroke-width="1" opacity="0.8944286680913414"/><path d="M -478.80578086643027 -50 Q 650 81.8180998874268 850 460 T -878.8057808664303 1050" stroke="#ffffff" stroke-width="14" opacity="0.9151128164681159"/><path d="M 1603.9184789106139 -50 Q 650 166.61538714620528 850 460 T 1203.9184789106139 1050" stroke="#ffffff" stroke-width="14" opacity="0.9243562549526191"/><path d="M 568.4248322314434 -50 Q 650 426.9846028738608 850 460 T 168.42483223144336 1050" stroke="#edffad" stroke-width="14" opacity="0.9296748951145098"/><path d="M -576.009928528085 -50 Q 650 175.36823717936838 850 460 T -976.009928528085 1050" stroke="#edffad" stroke-width="14" opacity="0.8966983596900694"/><path d="M 1520.7313454569312 -50 Q 650 430.87318604928123 850 460 T 1120.7313454569312 1050" stroke="#edffad" stroke-width="1" opacity="0.5867334807046412"/><path d="M -573.8023693567643 -50 Q 650 276.24299218473095 850 460 T -973.8023693567643 1050" stroke="#b8f538" stroke-width="1" opacity="0.6174748947910773"/><path d="M 217.1262088698586 -50 Q 650 446.226560667925 850 460 T -182.8737911301414 1050" stroke="#edffad" stroke-width="4" opacity="0.33778395933458494"/><path d="M 1724.374054569712 -50 Q 650 290.98248180826766 850 460 T 1324.374054569712 1050" stroke="#edffad" stroke-width="4" opacity="0.4045622210065541"/><path d="M -570.0032275652886 -50 Q 650 426.1786693972068 850 460 T -970.0032275652886 1050" stroke="#edffad" stroke-width="2" opacity="0.41761961992211893"/><path d="M -160.85112401269703 -50 Q 650 426.9569769081466 850 460 T -560.851124012697 1050" stroke="#b8f538" stroke-width="1" opacity="0.5912509399654347"/><path d="M 641.4173255033593 -50 Q 650 236.1082494964705 850 460 T 241.41732550335928 1050" stroke="#5a7818" stroke-width="2" opacity="0.4380102778424499"/><path d="M 523.6186817520445 -50 Q 650 244.9637617161826 850 460 T 123.6186817520445 1050" stroke="#ffffff" stroke-width="4" opacity="0.7935483625059442"/><path d="M -895.1166457387762 -50 Q 650 101.38509983081931 850 460 T -1295.1166457387762 1050" stroke="#b8f538" stroke-width="1" opacity="0.3372383641815432"/><path d="M -715.2749411493917 -50 Q 650 460.13008715863765 850 460 T -1115.2749411493917 1050" stroke="#edffad" stroke-width="14" opacity="0.6014840047284519"/><path d="M -47.080141127016645 -50 Q 650 202.68612211936937 850 460 T -447.08014112701665 1050" stroke="#5a7818" stroke-width="8" opacity="0.7028395293112488"/><path d="M 683.855426468843 -50 Q 650 220.7254883894539 850 460 T 283.855426468843 1050" stroke="#b8f538" stroke-width="4" opacity="0.5500897607701161"/><path d="M -555.4527327424285 -50 Q 650 81.36067822021766 850 460 T -955.4527327424285 1050" stroke="#ffffff" stroke-width="1" opacity="0.6467139059676923"/><path d="M -784.0038000953099 -50 Q 650 259.7189607898116 850 460 T -1184.00380009531 1050" stroke="#ffffff" stroke-width="1" opacity="0.686048557017564"/><path d="M 265.30271279271597 -50 Q 650 225.2438562713807 850 460 T -134.69728720728403 1050" stroke="#ffffff" stroke-width="4" opacity="0.5443597284346992"/><path d="M 974.1326714261681 -50 Q 650 259.72756584726875 850 460 T 574.1326714261681 1050" stroke="#b8f538" stroke-width="2" opacity="0.6250861688633527"/><path d="M 976.9566989893876 -50 Q 650 107.91658888178736 850 460 T 576.9566989893876 1050" stroke="#ffffff" stroke-width="2" opacity="0.5480985394958862"/><path d="M 1475.1070736039796 -50 Q 650 445.22878771253164 850 460 T 1075.1070736039796 1050" stroke="#5a7818" stroke-width="14" opacity="0.8036418274733855"/><path d="M -192.11474040212045 -50 Q 650 261.01585357872096 850 460 T -592.1147404021204 1050" stroke="#edffad" stroke-width="14" opacity="0.8047285695634833"/><path d="M 902.4162567652722 -50 Q 650 366.15671876201105 850 460 T 502.41625676527224 1050" stroke="#edffad" stroke-width="14" opacity="0.7516074054198778"/><path d="M 378.5786039195923 -50 Q 650 172.02840895934827 850 460 T -21.421396080407703 1050" stroke="#ffffff" stroke-width="1" opacity="0.619044474246049"/><path d="M 623.6684625454907 -50 Q 650 337.0907127364165 850 460 T 223.66846254549068 1050" stroke="#ffffff" stroke-width="2" opacity="0.8236125269267048"/><path d="M 22.006623239413102 -50 Q 650 412.39723114148194 850 460 T -377.9933767605869 1050" stroke="#edffad" stroke-width="1" opacity="0.7214743386011181"/><path d="M 1357.6912684749277 -50 Q 650 451.4404141973926 850 460 T 957.6912684749277 1050" stroke="#5a7818" stroke-width="1" opacity="0.275388488898961"/><path d="M 1172.030051960206 -50 Q 650 279.4170398735454 850 460 T 772.030051960206 1050" stroke="#b8f538" stroke-width="1" opacity="0.6381236651858349"/><path d="M -630.2336512258773 -50 Q 650 295.7946396160454 850 460 T -1030.2336512258773 1050" stroke="#5a7818" stroke-width="14" opacity="0.37629554033012336"/><path d="M -691.1880518962419 -50 Q 650 469.35637340032497 850 460 T -1091.1880518962419 1050" stroke="#b8f538" stroke-width="8" opacity="0.6811866863822889"/><path d="M 1134.5669354877166 -50 Q 650 233.55468026272544 850 460 T 734.5669354877166 1050" stroke="#5a7818" stroke-width="14" opacity="0.5276477616811942"/><path d="M 45.76810600552335 -50 Q 650 243.10488400505932 850 460 T -354.23189399447665 1050" stroke="#edffad" stroke-width="8" opacity="0.6002167274406913"/><path d="M 1727.2524350108324 -50 Q 650 241.00423521552278 850 460 T 1327.2524350108324 1050" stroke="#b8f538" stroke-width="8" opacity="0.7335866771480697"/><path d="M 1141.513259452042 -50 Q 650 342.8037662083917 850 460 T 741.5132594520419 1050" stroke="#ffffff" stroke-width="2" opacity="0.7000671027655627"/><path d="M 1522.9834958642641 -50 Q 650 138.23768543755645 850 460 T 1122.9834958642641 1050" stroke="#edffad" stroke-width="8" opacity="0.7737083653990243"/><path d="M 1574.858829277196 -50 Q 650 281.7290142980954 850 460 T 1174.858829277196 1050" stroke="#ffffff" stroke-width="14" opacity="0.7532374486377362"/><path d="M -397.5002082588604 -50 Q 650 184.26937135532805 850 460 T -797.5002082588604 1050" stroke="#b8f538" stroke-width="2" opacity="0.6599321205983519"/><path d="M -49.91167318872522 -50 Q 650 170.5990184253564 850 460 T -449.9116731887252 1050" stroke="#5a7818" stroke-width="8" opacity="0.6666575245376499"/><path d="M 678.3496482562305 -50 Q 650 463.66410496978216 850 460 T 278.34964825623047 1050" stroke="#b8f538" stroke-width="4" opacity="0.2661873294984217"/><path d="M 394.62196209327385 -50 Q 650 229.27254012408434 850 460 T -5.378037906726149 1050" stroke="#b8f538" stroke-width="14" opacity="0.5023292494354974"/><path d="M -30.486179120777365 -50 Q 650 381.9397749519563 850 460 T -430.48617912077736 1050" stroke="#b8f538" stroke-width="8" opacity="0.943852551939236"/><path d="M 394.89262844636664 -50 Q 650 313.61025028113465 850 460 T -5.107371553633357 1050" stroke="#ffffff" stroke-width="14" opacity="0.8342282148542131"/><path d="M 1318.3608231058029 -50 Q 650 297.2772864314197 850 460 T 918.3608231058029 1050" stroke="#ffffff" stroke-width="1" opacity="0.8496542607492855"/><path d="M 180.70823560961162 -50 Q 650 366.0994921171806 850 460 T -219.29176439038838 1050" stroke="#edffad" stroke-width="8" opacity="0.8876249869221526"/><path d="M 1505.6693340383658 -50 Q 650 332.8174463651959 850 460 T 1105.6693340383658 1050" stroke="#edffad" stroke-width="2" opacity="0.84771705700398"/></g></svg>