<svg xmlns="http://www.w3.org/2000/svg" viewBox="0 0 1600 950"><defs><filter id="blur"><feGaussianBlur stdDeviation="6"/></filter></defs><rect width="1600" height="950" fill="#060805"/><g fill="none" filter="url(#blur)"><path d="M -150 496 Q 600 578 800 480 Q 1120 578 1770 504" stroke="#779a20" stroke-width="3" opacity="0.24"/><path d="M -150 879 Q 600 525 800 480 Q 1120 525 1770 121" stroke="#b9ed30" stroke-width="1" opacity="0.51"/><path d="M -150 207 Q 600 556 800 480 Q 1120 556 1770 793" stroke="#d5ff51" stroke-width="3" opacity="0.49"/><path d="M -150 745 Q 600 533 800 480 Q 1120 533 1770 255" stroke="#779a20" stroke-width="28" opacity="0.29"/><path d="M -150 -469 Q 600 581 800 480 Q 1120 581 1770 1469" stroke="#779a20" stroke-width="2" opacity="0.18"/><path d="M -150 519 Q 600 577 800 480 Q 1120 577 1770 481" stroke="#779a20" stroke-width="28" opacity="0.21"/><path d="M -150 -341 Q 600 545 800 480 Q 1120 545 1770 1341" stroke="#b9ed30" stroke-width="1" opacity="0.25"/><path d="M -150 465 Q 600 598 800 480 Q 1120 598 1770 535" stroke="#b9ed30" stroke-width="28" opacity="0.55"/><path d="M -150 833 Q 600 431 800 480 Q 1120 431 1770 167" stroke="#b9ed30" stroke-width="16" opacity="0.52"/><path d="M -150 309 Q 600 492 800 480 Q 1120 492 1770 691" stroke="#d5ff51" stroke-width="28" opacity="0.27"/><path d="M -150 187 Q 600 567 800 480 Q 1120 567 1770 813" stroke="#779a20" stroke-width="7" opacity="0.22"/><path d="M -150 -151 Q 600 372 800 480 Q 1120 372 1770 1151" stroke="#b9ed30" stroke-width="3" opacity="0.14"/><path d="M -150 1052 Q 600 351 800 480 Q 1120 351 1770 -52" stroke="#779a20" stroke-width="16" opacity="0.48"/><path d="M -150 562 Q 600 328 800 480 Q 1120 328 1770 438" stroke="#d5ff51" stroke-width="28" opacity="0.25"/><path d="M -150 70 Q 600 403 800 480 Q 1120 403 1770 930" stroke="#d5ff51" stroke-width="16" opacity="0.37"/><path d="M -150 104 Q 600 299 800 480 Q 1120 299 1770 896" stroke="#779a20" stroke-width="3" opacity="0.13"/><path d="M -150 -28 Q 600 514 800 480 Q 1120 514 1770 1028" stroke="#d5ff51" stroke-width="28" opacity="0.21"/><path d="M -150 -442 Q 600 645 800 480 Q 1120 645 1770 1442" stroke="#779a20" stroke-width="7" opacity="0.13"/><path d="M -150 503 Q 600 331 800 480 Q 1120 331 1770 497" stroke="#779a20" stroke-width="7" opacity="0.43"/><path d="M -150 1115 Q 600 348 800 480 Q 1120 348 1770 -115" stroke="#779a20" stroke-width="3" opacity="0.53"/><path d="M -150 -368 Q 600 359 800 480 Q 1120 359 1770 1368" stroke="#d5ff51" stroke-width="16" opacity="0.25"/><path d="M -150 1103 Q 600 298 800 480 Q 1120 298 1770 -103" stroke="#d5ff51" stroke-width="7" opacity="0.16"/><path d="M -150 1162 Q 600 523 800 480 Q 1120 523 1770 -162" stroke="#779a20" stroke-width="7" opacity="0.33"/><path d="M -150 -421 Q 600 516 800 480 Q 1120 516 1770 1421" stroke="#d5ff51" stroke-width="2" opacity="0.22"/><path d="M -150 610 Q 600 577 800 480 Q 1120 577 1770 390" stroke="#d5ff51" stroke-width="1" opacity="0.43"/><path d="M -150 631 Q 600 585 800 480 Q 1120 585 1770 369" stroke="#779a20" stroke-width="2" opacity="0.36"/><path d="M -150 716 Q 600 309 800 480 Q 1120 309 1770 284" stroke="#b9ed30" stroke-width="7" opacity="0.44"/><path d="M -150 414 Q 600 583 800 480 Q 1120 583 1770 586" stroke="#779a20" stroke-width="3" opacity="0.38"/><path d="M -150 614 Q 600 472 800 480 Q 1120 472 1770 386" stroke="#d5ff51" stroke-width="1" opacity="0.50"/><path d="M -150 1425 Q 600 343 800 480 Q 1120 343 1770 -425" stroke="#d5ff51" stroke-width="16" opacity="0.22"/><path d="M -150 173 Q 600 649 800 480 Q 1120 649 1770 827" stroke="#d5ff51" stroke-width="2" opacity="0.25"/><path d="M -150 343 Q 600 315 800 480 Q 1120 315 1770 657" stroke="#b9ed30" stroke-width="1" opacity="0.35"/><path d="M -150 1379 Q 600 612 800 480 Q 1120 612 1770 -379" stroke="#d5ff51" stroke-width="16" opacity="0.45"/><path d="M -150 374 Q 600 597 800 480 Q 1120 597 1770 626" stroke="#d5ff51" stroke-width="2" opacity="0.35"/><path d="M -150 351 Q 600 389 800 480 Q 1120 389 1770 649" stroke="#d5ff51" stroke-width="2" opacity="0.54"/><path d="M -150 108 Q 600 402 800 480 Q 1120 402 1770 892" stroke="#779a20" stroke-width="1" opacity="0.23"/><path d="M -150 801 Q 600 286 800 480 Q 1120 286 1770 199" stroke="#d5ff51" stroke-width="1" opacity="0.32"/><path d="M -150 686 Q 600 647 800 480 Q 1120 647 1770 314" stroke="#b9ed30" stroke-width="1" opacity="0.45"/><path d="M -150 356 Q 600 584 800 480 Q 1120 584 1770 644" stroke="#b9ed30" stroke-width="2" opacity="0.49"/><path d="M -150 1186 Q 600 574 800 480 Q 1120 574 1770 -186" stroke="#779a20" stroke-width="7" opacity="0.53"/><path d="M -150 532 Q 600 350 800 480 Q 1120 350 1770 468" stroke="#d5ff51" stroke-width="16" opacity="0.23"/><path d="M -150 129 Q 600 481 800 480 Q 1120 481 1770 871" stroke="#b9ed30" stroke-width="7" opacity="0.29"/><path d="M -150 504 Q 600 648 800 480 Q 1120 648 1770 496" stroke="#b9ed30" stroke-width="1" opacity="0.45"/><path d="M -150 716 Q 600 600 800 480 Q 1120 600 1770 284" stroke="#d5ff51" stroke-width="3" opacity="0.26"/><path d="M -150 -333 Q 600 590 800 480 Q 1120 590 1770 1333" stroke="#d5ff51" stroke-width="7" opacity="0.47"/><path d="M -150 -338 Q 600 372 800 480 Q 1120 372 1770 1338" stroke="#779a20" stroke-width="28" opacity="0.30"/><path d="M -150 -179 Q 600 415 800 480 Q 1120 415 1770 1179" stroke="#779a20" stroke-width="2" opacity="0.34"/><path d="M -150 -282 Q 600 389 800 480 Q 1120 389 1770 1282" stroke="#d5ff51" stroke-width="7" opacity="0.31"/><path d="M -150 1040 Q 600 504 800 480 Q 1120 504 1770 -40" stroke="#b9ed30" stroke-width="2" opacity="0.41"/><path d="M -150 -255 Q 600 478 800 480 Q 1120 478 1770 1255" stroke="#d5ff51" stroke-width="3" opacity="0.33"/><path d="M -150 1409 Q 600 431 800 480 Q 1120 431 1770 -409" stroke="#779a20" stroke-width="16" opacity="0.22"/><path d="M -150 -283 Q 600 367 800 480 Q 1120 367 1770 1283" stroke="#d5ff51" stroke-width="16" opacity="0.26"/><path d="M -150 976 Q 600 576 800 480 Q 1120 576 1770 24" stroke="#d5ff51" stroke-width="3" opacity="0.52"/><path d="M -150 -74 Q 600 351 800 480 Q 1120 351 1770 1074" stroke="#d5ff51" stroke-width="1" opacity="0.39"/><path d="M -150 435 Q 600 439 800 480 Q 1120 439 1770 565" stroke="#b9ed30" stroke-width="16" opacity="0.28"/><path d="M -150 -452 Q 600 390 800 480 Q 1120 390 1770 1452" stroke="#d5ff51" stroke-width="3" opacity="0.27"/><path d="M -150 75 Q 600 637 800 480 Q 1120 637 1770 925" stroke="#d5ff51" stroke-width="28" opacity="0.23"/><path d="M -150 1213 Q 600 621 800 480 Q 1120 621 1770 -213" stroke="#d5ff51" stroke-width="16" opacity="0.39"/><path d="M -150 -381 Q 600 583 800 480 Q 1120 583 1770 1381" stroke="#d5ff51" stroke-width="28" opacity="0.39"/><path d="M -150 -102 Q 600 359 800 480 Q 1120 359 1770 1102" stroke="#d5ff51" stroke-width="3" opacity="0.48"/><path d="M -150 188 Q 600 630 800 480 Q 1120 630 1770 812" stroke="#779a20" stroke-width="3" opacity="0.29"/><path d="M -150 -173 Q 600 397 800 480 Q 1120 397 1770 1173" stroke="#779a20" stroke-width="1" opacity="0.49"/><path d="M -150 -474 Q 600 530 800 480 Q 1120 530 1770 1474" stroke="#779a20" stroke-width="7" opacity="0.29"/><path d="M -150 -55 Q 600 392 800 480 Q 1120 392 1770 1055" stroke="#b9ed30" stroke-width="2" opacity="0.44"/><path d="M -150 -202 Q 600 596 800 480 Q 1120 596 1770 1202" stroke="#b9ed30" stroke-width="28" opacity="0.50"/></g></svg>